<?xml version="1.0" encoding="iso-8859-1"?>
<!-- Uploaded to: SVG Repo, www.svgrepo.com, Generator: SVG Repo Mixer Tools -->
<!DOCTYPE svg PUBLIC "-//W3C//DTD SVG 1.1//EN" "http://www.w3.org/Graphics/SVG/1.1/DTD/svg11.dtd">
<svg fill="#000000" version="1.1" id="Capa_1" xmlns="http://www.w3.org/2000/svg" xmlns:xlink="http://www.w3.org/1999/xlink" 
	 width="800px" height="800px" viewBox="0 0 45.736 45.736"
	 xml:space="preserve">
<g>
	<path d="M38.438,23.108H35.52c-2.416,0-4.379,1.981-4.379,4.396s1.963,4.396,4.379,4.396h2.433c0.808,0,1.459-0.672,1.459-1.479
		c0-0.806-0.651-1.479-1.459-1.479H35.52c-0.805,0-1.459-0.635-1.459-1.439s0.654-1.439,1.459-1.439h2.918
		c2.416,0,4.379,1.943,4.379,4.357s-1.963,4.357-4.379,4.357H26.266v-7.438c3.312-0.512,5.838-3.375,5.838-6.831l0,0
		c0-0.688,0.566-1.241,1.254-1.241h6.587c0.972,0,1.76-0.787,1.76-1.759c0-0.972-0.788-1.759-1.76-1.759H13.491
		c-1.54,0-2.787-1.232-2.787-2.772c0-2.76-2.238-4.983-4.998-4.983h-3.76C0.871,7.997,0,8.841,0,9.916
		c0,1.074,0.871,1.918,1.946,1.918H3.62c0.688,0,1.218,0.577,1.218,1.265v7.412c0,3.796,3.088,6.876,6.876,6.911v7.358h-3.93
		c-2.683,0-4.865-2.168-4.865-4.85c0-0.808-0.653-1.445-1.46-1.445C0.653,28.485,0,29.142,0,29.948c0,4.291,3.492,7.791,7.785,7.791
		h30.652c4.024,0,7.299-3.291,7.299-7.316C45.736,26.399,42.462,23.108,38.438,23.108z M14.593,27.427h8.795v7.355h-8.795V27.427z"
		/>
</g>
</svg>